<?xml version="1.0" encoding="utf-8"?>
<!-- Generator: Adobe Illustrator 19.2.1, SVG Export Plug-In . SVG Version: 6.00 Build 0)  -->
<svg version="1.1" xmlns="http://www.w3.org/2000/svg" xmlns:xlink="http://www.w3.org/1999/xlink" x="0px" y="0px" width="1536px"
	 height="2048px" viewBox="0 0 1536 2048" style="enable-background:new 0 0 1536 2048;" xml:space="preserve">
<style type="text/css">
	.circle1{fill:#FF0000;stroke:#000000;stroke-miterlimit:10;}
	.circle2{fill:#FF0000;stroke:#000000;stroke-miterlimit:10;}
	.circle3{fill:#FF0000;stroke:#000000;stroke-miterlimit:10;}
	.polygon1{fill:url(#SVGID_1_);stroke:#000000;stroke-miterlimit:10;}
	.monkey{fill:none;}
	.st0{fill:url(#SVGID_2_);stroke:#000000;stroke-miterlimit:10;}
	.st1{fill:none;stroke:#FCEE21;stroke-miterlimit:10;}
	.st2{fill:#FCEE21;}
	.st3{fill:url(#SVGID_3_);stroke:url(#SVGID_4_);stroke-miterlimit:10;}
	.st4{fill:url(#SVGID_5_);stroke:#FCEE21;stroke-miterlimit:10;}
	.st5{fill:url(#SVGID_6_);stroke:#FCEE21;stroke-miterlimit:10;}
	.st6{fill:url(#SVGID_7_);stroke:#FFFF00;stroke-miterlimit:10;}
	.st7{fill:url(#SVGID_8_);stroke:#FCEE21;stroke-miterlimit:10;}
	.st8{fill:url(#SVGID_9_);stroke:#FFFF00;stroke-miterlimit:10;}
	.st9{fill:url(#SVGID_10_);stroke:#FFFF00;stroke-miterlimit:10;}
	.st10{fill:url(#SVGID_11_);stroke:#FCEE21;stroke-miterlimit:10;}
	.st11{fill:#FFFF00;stroke:#000000;stroke-miterlimit:10;}
	.st12{fill:#ED1C24;stroke:#000000;stroke-miterlimit:10;}
	.st13{fill:#C1272D;stroke:#000000;stroke-miterlimit:10;}
</style>
<linearGradient id="SVGID_1_" gradientUnits="userSpaceOnUse" x1="0" y1="0" x2="1" y2="0">
	<stop  offset="0" style="stop-color:#88A80D"/>
	<stop  offset="0.5" style="stop-color:#88A80D;stop-opacity:0"/>
	<stop  offset="1" style="stop-color:#88A80D"/>
</linearGradient>
<g id="Layer_1">
	<linearGradient id="SVGID_2_" gradientUnits="userSpaceOnUse" x1="393.9021" y1="1158.0892" x2="950.5169" y2="1158.0892">
		<stop  offset="0" style="stop-color:#88A80D"/>
		<stop  offset="0.5" style="stop-color:#88A80D;stop-opacity:0"/>
		<stop  offset="1" style="stop-color:#88A80D"/>
	</linearGradient>
	<polygon class="st0" points="908.1,1343.3 629.8,1454.9 393.9,1269.7 436.4,972.9 714.7,861.2 950.5,1046.4 	"/>
	<circle class="st1" cx="0" cy="0" r="0"/>
	<g>
		<g>
			<path class="st2" d="M-508.2-695.2c1.9,0,1.9-3,0-3C-510.1-698.2-510.1-695.2-508.2-695.2L-508.2-695.2z"/>
		</g>
	</g>
	
		<linearGradient id="SVGID_3_" gradientUnits="userSpaceOnUse" x1="98.9372" y1="1357.4012" x2="264.0352" y2="1357.4012" gradientTransform="matrix(0.7793 -0.6266 0.6266 0.7793 -810.5316 413.2741)">
		<stop  offset="0" style="stop-color:#88A80D"/>
		<stop  offset="0.5" style="stop-color:#88A80D;stop-opacity:0"/>
		<stop  offset="1" style="stop-color:#88A80D"/>
	</linearGradient>
	
		<linearGradient id="SVGID_4_" gradientUnits="userSpaceOnUse" x1="98.3599" y1="1357.4012" x2="264.6126" y2="1357.4012" gradientTransform="matrix(0.7793 -0.6266 0.6266 0.7793 -810.5316 413.2741)">
		<stop  offset="0" style="stop-color:#88A80D"/>
		<stop  offset="0.5" style="stop-color:#88A80D;stop-opacity:0"/>
		<stop  offset="1" style="stop-color:#88A80D"/>
	</linearGradient>
	<polygon class="st3" points="245.8,1305.7 258.4,1387.3 194.1,1439 117.2,1409.1 104.5,1327.6 168.9,1275.8 	"/>
	
		<linearGradient id="SVGID_5_" gradientUnits="userSpaceOnUse" x1="526.8717" y1="698.3545" x2="699.2933" y2="698.3545" gradientTransform="matrix(0.8842 0.4671 -0.4671 0.8842 397.2171 -205.5101)">
		<stop  offset="0" style="stop-color:#88A80D"/>
		<stop  offset="0.5" style="stop-color:#88A80D;stop-opacity:0"/>
		<stop  offset="1" style="stop-color:#88A80D"/>
	</linearGradient>
	<polygon class="st4" points="661.8,782.8 564.3,782.8 515.6,698.4 564.3,613.9 661.8,613.9 710.6,698.4 	"/>
	<linearGradient id="SVGID_6_" gradientUnits="userSpaceOnUse" x1="1041.0875" y1="731.3741" x2="1133.6572" y2="731.3741">
		<stop  offset="0" style="stop-color:#88A80D"/>
		<stop  offset="0.5" style="stop-color:#88A80D;stop-opacity:0"/>
		<stop  offset="1" style="stop-color:#88A80D"/>
	</linearGradient>
	<polygon class="st5" points="1122.8,764.4 1076.5,778.5 1041.1,745.5 1052,698.4 1098.3,684.2 1133.7,717.2 	"/>
	
		<linearGradient id="SVGID_7_" gradientUnits="userSpaceOnUse" x1="1079.3665" y1="1008.8986" x2="1154.8398" y2="1008.8986" gradientTransform="matrix(0.6368 0.7711 -0.7711 0.6368 1183.7047 -494.8834)">
		<stop  offset="0" style="stop-color:#88A80D"/>
		<stop  offset="0.5" style="stop-color:#88A80D;stop-opacity:0"/>
		<stop  offset="1" style="stop-color:#88A80D"/>
	</linearGradient>
	<polygon class="st6" points="1132,1045.5 1092.9,1040.1 1077.9,1003.5 1102.2,972.3 1141.3,977.7 1156.3,1014.3 	"/>
	
		<linearGradient id="SVGID_8_" gradientUnits="userSpaceOnUse" x1="1150.2838" y1="1334.9714" x2="1364.3579" y2="1334.9714" gradientTransform="matrix(6.850921e-02 0.9977 -0.9977 6.850921e-02 2496.0903 -61.1826)">
		<stop  offset="0" style="stop-color:#88A80D"/>
		<stop  offset="0.5" style="stop-color:#88A80D;stop-opacity:0"/>
		<stop  offset="1" style="stop-color:#88A80D"/>
	</linearGradient>
	<polygon class="st7" points="1194,1392.5 1128.7,1289.7 1185.2,1181.8 1306.8,1176.7 1372,1279.6 1315.6,1387.5 	"/>
	<linearGradient id="SVGID_9_" gradientUnits="userSpaceOnUse" x1="116.7235" y1="1068.0887" x2="192.1969" y2="1068.0887">
		<stop  offset="0" style="stop-color:#88A80D"/>
		<stop  offset="0.5" style="stop-color:#88A80D;stop-opacity:0"/>
		<stop  offset="1" style="stop-color:#88A80D"/>
	</linearGradient>
	<polygon class="st8" points="192.2,1079.9 163.1,1106.7 125.4,1094.9 116.7,1056.3 145.8,1029.5 183.5,1041.3 	"/>
	
		<linearGradient id="SVGID_10_" gradientUnits="userSpaceOnUse" x1="432.7179" y1="527.7157" x2="508.1913" y2="527.7157" gradientTransform="matrix(0.9412 -0.3379 0.3379 0.9412 -150.6358 189.9908)">
		<stop  offset="0" style="stop-color:#88A80D"/>
		<stop  offset="0.5" style="stop-color:#88A80D;stop-opacity:0"/>
		<stop  offset="1" style="stop-color:#88A80D"/>
	</linearGradient>
	<polygon class="st9" points="510,526.1 491.6,561.1 452.1,562.8 431,529.4 449.3,494.3 488.8,492.7 	"/>
	<linearGradient id="SVGID_11_" gradientUnits="userSpaceOnUse" x1="273.4327" y1="508.0605" x2="273.4327" y2="508.0605">
		<stop  offset="0" style="stop-color:#88A80D"/>
		<stop  offset="0.5" style="stop-color:#88A80D;stop-opacity:0"/>
		<stop  offset="1" style="stop-color:#88A80D"/>
	</linearGradient>
	<path class="st10" d="M273.4,508.1"/>
	<g>
		<g>
			<path class="st2" d="M275.9,504.2c94.8,19.3,192.2,0.6,282-31.9c44.7-16.2,88.1-35.7,131.1-55.9c41.4-19.5,82.3-40.2,121.9-63.2
				c44.4-25.8,87-54.7,126.3-87.7c1.5-1.2-0.7-3.4-2.1-2.1c-69.7,58.6-149.6,103.4-231.4,142.7c-84.3,40.6-171.6,79.5-264.4,95.6
				c-53.7,9.3-109,10.5-162.6-0.4C274.8,500.9,274,503.8,275.9,504.2L275.9,504.2z"/>
		</g>
	</g>
	<g>
		<g>
			<path class="st2" d="M940.4,269c23.8,25.1,47.6,50.3,71.3,75.4c11.9,12.6,23.8,25.1,35.7,37.7c10.2,10.8,20.3,21.8,31.8,31.3
				c23.9,19.7,53.3,26.9,82.6,35c32,8.8,64.2,17.2,97.1,21.6c16.6,2.2,34.4,4.6,51.2,3.1c9.5-0.8,21.1-4.5,22.2-15.4
				c0.2-1.9-2.8-1.9-3,0c-1.4,13.5-21.5,12.7-31.1,12.5c-15.7-0.4-31.4-2-47-4.4c-30.3-4.7-60-12.5-89.5-20.6
				c-28.7-7.9-57.6-15-81-34.5c-10.7-8.9-20.2-19.2-29.7-29.3c-11-11.6-22-23.2-32.9-34.8c-25.2-26.6-50.3-53.2-75.5-79.7
				C941.2,265.5,939.1,267.6,940.4,269L940.4,269z"/>
		</g>
	</g>
</g>
<g id="Layer_2">
	<circle class="circle2" cx="958.5" cy="418.5" r="153.7"/>
	<rect x="859.4" y="552.4" class="st11" width="198.3" height="39.5"/>
	<rect x="943.8" y="592" class="st12" width="14.7" height="178.8"/>
	<circle class="st13" cx="951.2" cy="770.8" r="26.6"/>
	<g>
		<g>
			<path class="st2" d="M863.6,593.6c3.4,9.4,6.4,18.9,8.9,28.5c0.5,1.9,3.4,1.1,2.9-0.8c-2.5-9.6-5.5-19.1-8.9-28.5
				C865.8,591,862.9,591.8,863.6,593.6L863.6,593.6z"/>
		</g>
	</g>
	<g>
		<g>
			<path class="st2" d="M872.6,592.1c-0.4,10-0.2,20,0.7,29.9c0.2,1.9,3.2,1.9,3,0c-0.9-10-1.1-19.9-0.7-29.9
				C875.7,590.1,872.7,590.1,872.6,592.1L872.6,592.1z"/>
		</g>
	</g>
	<g>
		<g>
			<path class="st2" d="M878.9,592c0,10.6,0,21.2,0,31.7c0,1.9,3,1.9,3,0c0-10.6,0-21.2,0-31.7C881.9,590.1,878.9,590.1,878.9,592
				L878.9,592z"/>
		</g>
	</g>
	<g>
		<g>
			<path class="st2" d="M886.7,600.8c1.9,0,1.9-3,0-3C884.8,597.8,884.8,600.8,886.7,600.8L886.7,600.8z"/>
		</g>
	</g>
	<g>
		<g>
			<path class="st2" d="M884.5,593c-0.9,11.1-0.5,22.1,1.1,33.1c0.3,1.9,3.2,1.1,2.9-0.8c-1.6-10.7-1.9-21.5-1-32.3
				C887.7,591.1,884.7,591.1,884.5,593L884.5,593z"/>
		</g>
	</g>
	<g>
		<g>
			<path class="st2" d="M894.3,591.1c0.2,12.3-0.5,24.5-2.2,36.7c-0.3,1.9,2.6,2.7,2.9,0.8c1.7-12.5,2.5-25,2.3-37.5
				C897.3,589.2,894.3,589.2,894.3,591.1L894.3,591.1z"/>
		</g>
	</g>
	<g>
		<g>
			<path class="st2" d="M903.5,593c-0.9,9.6-0.4,19.1,1.3,28.6c0.4,1.9,3.2,1.1,2.9-0.8c-1.7-9.2-2.1-18.4-1.2-27.8
				C906.7,591.1,903.7,591.1,903.5,593L903.5,593z"/>
		</g>
	</g>
	<g>
		<g>
			<path class="st2" d="M910.8,593c-0.9,13.2-0.4,26.3,1.5,39.4c0.3,1.9,3.2,1.1,2.9-0.8c-1.8-12.8-2.3-25.7-1.4-38.6
				C913.9,591,910.9,591,910.8,593L910.8,593z"/>
		</g>
	</g>
	<g>
		<g>
			<path class="st2" d="M917.6,594.8c0.4,9.1,0.8,18.1,1.2,27.2c0.1,1.9,3.1,1.9,3,0c-0.4-9.1-0.8-18.1-1.2-27.2
				C920.6,592.9,917.5,592.8,917.6,594.8L917.6,594.8z"/>
		</g>
	</g>
	<g>
		<g>
			<path class="st2" d="M926.2,593c-1.4,11,0.4,21.7,5.3,31.6c0.8,1.7,3.4,0.2,2.6-1.5c-4.6-9.5-6.2-19.7-4.9-30.1
				C929.5,591.1,926.5,591.1,926.2,593L926.2,593z"/>
		</g>
	</g>
	<g>
		<g>
			<path class="st2" d="M934.3,593c-0.4,9.4-0.3,18.8,0.4,28.1c0.1,1.9,3.1,1.9,3,0c-0.6-9.4-0.7-18.7-0.4-28.1
				C937.3,591,934.3,591,934.3,593L934.3,593z"/>
		</g>
	</g>
	<g>
		<g>
			<path class="st2" d="M941.8,594.4c-1.9,12.6-0.6,25.2,4,37.1c0.7,1.8,3.6,1,2.9-0.8c-4.4-11.4-5.8-23.4-4-35.5
				C944.9,593.3,942,592.5,941.8,594.4L941.8,594.4z"/>
		</g>
	</g>
	<g>
		<g>
			<path class="st2" d="M948,593.9c-1.3,10-0.2,19.9,3.4,29.4c0.7,1.8,3.6,1,2.9-0.8c-3.5-9.3-4.5-18.8-3.2-28.6
				C951.2,592,948.2,592,948,593.9L948,593.9z"/>
		</g>
	</g>
	<g>
		<g>
			<path class="st2" d="M954.2,595.7c-0.8,10.4,0.8,20.6,4.6,30.3c0.7,1.8,3.6,1,2.9-0.8c-3.7-9.5-5.3-19.3-4.5-29.5
				C957.3,593.8,954.3,593.8,954.2,595.7L954.2,595.7z"/>
		</g>
	</g>
	<g>
		<g>
			<path class="st2" d="M961.4,593c-0.4,8.8-0.1,17.5,0.8,26.3c0.2,1.9,3.2,1.9,3,0c-1-8.8-1.2-17.5-0.8-26.3
				C964.5,591,961.5,591,961.4,593L961.4,593z"/>
		</g>
	</g>
	<g>
		<g>
			<path class="st2" d="M968.5,593.9c0.8,9.3,0.2,18.5-1.7,27.7c-0.4,1.9,2.5,2.7,2.9,0.8c2-9.4,2.6-18.9,1.8-28.5
				C971.3,592,968.3,591.9,968.5,593.9L968.5,593.9z"/>
		</g>
	</g>
	<g>
		<g>
			<path class="st2" d="M976.7,593.9c-0.1,12.4,1.1,24.6,3.8,36.7c0.4,1.9,3.3,1.1,2.9-0.8c-2.6-11.8-3.8-23.8-3.7-35.9
				C979.8,591.9,976.8,591.9,976.7,593.9L976.7,593.9z"/>
		</g>
	</g>
	<g>
		<g>
			<path class="st2" d="M981.1,592c0.6,10.6,9,20.6,6.1,31.3c-0.5,1.9,2.4,2.7,2.9,0.8c3.1-11.3-5.4-21-6-32.1
				C984,590.1,981,590.1,981.1,592L981.1,592z"/>
		</g>
	</g>
	<g>
		<g>
			<path class="st2" d="M989.6,594.8c-0.4,8.5-0.2,17,0.3,25.4c0.1,1.9,3.1,1.9,3,0c-0.6-8.5-0.7-16.9-0.3-25.4
				C992.7,592.8,989.7,592.8,989.6,594.8L989.6,594.8z"/>
		</g>
	</g>
	<g>
		<g>
			<path class="st2" d="M997.7,593.9c0,9.7,0,19.3,0,29c0,1.9,3,1.9,3,0c0-9.7,0-19.3,0-29C1000.7,591.9,997.7,591.9,997.7,593.9
				L997.7,593.9z"/>
		</g>
	</g>
	<g>
		<g>
			<path class="st2" d="M1005.9,593c0.3,9.1-0.7,17.9-3.1,26.7c-0.5,1.9,2.4,2.7,2.9,0.8c2.4-9,3.5-18.2,3.2-27.5
				C1008.8,591,1005.8,591,1005.9,593L1005.9,593z"/>
		</g>
	</g>
	<g>
		<g>
			<path class="st2" d="M1014,593c-0.4,10.5,0.6,20.9,2.8,31.2c0.4,1.9,3.3,1.1,2.9-0.8c-2.2-10.1-3-20.2-2.7-30.4
				C1017.1,591,1014.1,591,1014,593L1014,593z"/>
		</g>
	</g>
	<g>
		<g>
			<path class="st2" d="M1023,593.9c0,7.6,0,15.1,0,22.7c0,1.9,3,1.9,3,0c0-7.6,0-15.1,0-22.7C1026,591.9,1023,591.9,1023,593.9
				L1023,593.9z"/>
		</g>
	</g>
	<g>
		<g>
			<path class="st2" d="M1031.5,593c-0.8,9.6-2.3,19.1-4.4,28.5c-0.4,1.9,2.5,2.7,2.9,0.8c2.2-9.7,3.7-19.4,4.5-29.3
				C1034.7,591.1,1031.7,591.1,1031.5,593L1031.5,593z"/>
		</g>
	</g>
	<g>
		<g>
			<path class="st2" d="M1038.4,593c0.4,9.7,0.1,19.4-0.8,29c-0.2,1.9,2.8,1.9,3,0c0.9-9.7,1.2-19.3,0.8-29
				C1041.4,591,1038.4,591,1038.4,593L1038.4,593z"/>
		</g>
	</g>
	<g>
		<g>
			<path class="st2" d="M1045.7,594.8c0,9.7,0,19.3,0,29c0,1.9,3,1.9,3,0c0-9.7,0-19.3,0-29C1048.7,592.8,1045.7,592.8,1045.7,594.8
				L1045.7,594.8z"/>
		</g>
	</g>
	<g>
		<g>
			<path class="st2" d="M1051.2,594.8c0,9.4,0,18.7,0,28.1c0,1.9,3,1.9,3,0c0-9.4,0-18.7,0-28.1
				C1054.2,592.8,1051.2,592.8,1051.2,594.8L1051.2,594.8z"/>
		</g>
	</g>
	<rect x="934.7" y="791.6" class="st1" width="2.9" height="146.8"/>
	<rect x="966.8" y="791.3" class="st1" width="2.9" height="146.8"/>
	<rect x="940.9" y="797.3" class="st1" width="2.9" height="146.8"/>
	<rect x="956.3" y="797.3" class="st1" width="2.9" height="146.8"/>
	<rect x="945.8" y="797.3" class="st1" width="2.9" height="146.8"/>
	<circle class="circle1" cx="286" cy="657.1" r="153.7"/>
	<rect x="186.9" y="791" class="st11" width="198.3" height="39.5"/>
	<rect x="271.3" y="830.5" class="st12" width="14.7" height="178.8"/>
	<circle class="st13" cx="278.7" cy="1009.4" r="26.6"/>
	<g>
		<g>
			<path class="st2" d="M191.1,832.2c3.4,9.4,6.4,18.9,8.9,28.5c0.5,1.9,3.4,1.1,2.9-0.8c-2.5-9.6-5.5-19.1-8.9-28.5
				C193.3,829.6,190.4,830.4,191.1,832.2L191.1,832.2z"/>
		</g>
	</g>
	<g>
		<g>
			<path class="st2" d="M200.1,830.6c-0.4,10-0.2,20,0.7,29.9c0.2,1.9,3.2,1.9,3,0c-0.9-10-1.1-19.9-0.7-29.9
				C203.1,828.7,200.1,828.7,200.1,830.6L200.1,830.6z"/>
		</g>
	</g>
	<g>
		<g>
			<path class="st2" d="M206.3,830.6c0,10.6,0,21.2,0,31.7c0,1.9,3,1.9,3,0c0-10.6,0-21.2,0-31.7
				C209.3,828.7,206.3,828.7,206.3,830.6L206.3,830.6z"/>
		</g>
	</g>
	<g>
		<g>
			<path class="st2" d="M214.2,839.4c1.9,0,1.9-3,0-3C212.3,836.4,212.2,839.4,214.2,839.4L214.2,839.4z"/>
		</g>
	</g>
	<g>
		<g>
			<path class="st2" d="M212,831.6c-0.9,11.1-0.5,22.1,1.1,33.1c0.3,1.9,3.2,1.1,2.9-0.8c-1.6-10.7-1.9-21.5-1-32.3
				C215.1,829.6,212.1,829.7,212,831.6L212,831.6z"/>
		</g>
	</g>
	<g>
		<g>
			<path class="st2" d="M221.8,829.7c0.2,12.3-0.5,24.5-2.2,36.7c-0.3,1.9,2.6,2.7,2.9,0.8c1.7-12.5,2.5-25,2.3-37.5
				C224.8,827.8,221.8,827.8,221.8,829.7L221.8,829.7z"/>
		</g>
	</g>
	<g>
		<g>
			<path class="st2" d="M231,831.6c-0.9,9.6-0.4,19.1,1.3,28.6c0.4,1.9,3.2,1.1,2.9-0.8c-1.7-9.2-2.1-18.4-1.2-27.8
				C234.2,829.6,231.2,829.7,231,831.6L231,831.6z"/>
		</g>
	</g>
	<g>
		<g>
			<path class="st2" d="M238.2,831.6c-0.9,13.2-0.4,26.3,1.5,39.4c0.3,1.9,3.2,1.1,2.9-0.8c-1.8-12.8-2.3-25.7-1.4-38.6
				C241.4,829.6,238.4,829.6,238.2,831.6L238.2,831.6z"/>
		</g>
	</g>
	<g>
		<g>
			<path class="st2" d="M245.1,833.4c0.4,9.1,0.8,18.1,1.2,27.2c0.1,1.9,3.1,1.9,3,0c-0.4-9.1-0.8-18.1-1.2-27.2
				C248,831.5,245,831.4,245.1,833.4L245.1,833.4z"/>
		</g>
	</g>
	<g>
		<g>
			<path class="st2" d="M253.7,831.6c-1.4,11,0.4,21.7,5.3,31.6c0.8,1.7,3.4,0.2,2.6-1.5c-4.6-9.5-6.2-19.7-4.9-30.1
				C256.9,829.7,253.9,829.7,253.7,831.6L253.7,831.6z"/>
		</g>
	</g>
	<g>
		<g>
			<path class="st2" d="M261.7,831.6c-0.4,9.4-0.3,18.8,0.4,28.1c0.1,1.9,3.1,1.9,3,0c-0.6-9.4-0.7-18.7-0.4-28.1
				C264.8,829.6,261.8,829.6,261.7,831.6L261.7,831.6z"/>
		</g>
	</g>
	<g>
		<g>
			<path class="st2" d="M269.2,833c-1.9,12.6-0.6,25.2,4,37.1c0.7,1.8,3.6,1,2.9-0.8c-4.4-11.4-5.8-23.4-4-35.5
				C272.4,831.9,269.5,831.1,269.2,833L269.2,833z"/>
		</g>
	</g>
	<g>
		<g>
			<path class="st2" d="M275.5,832.5c-1.3,10-0.2,19.9,3.4,29.4c0.7,1.8,3.6,1,2.9-0.8c-3.5-9.3-4.5-18.8-3.2-28.6
				C278.7,830.6,275.7,830.6,275.5,832.5L275.5,832.5z"/>
		</g>
	</g>
	<g>
		<g>
			<path class="st2" d="M281.6,834.3c-0.8,10.4,0.8,20.6,4.6,30.3c0.7,1.8,3.6,1,2.9-0.8c-3.7-9.5-5.3-19.3-4.5-29.5
				C284.8,832.3,281.8,832.4,281.6,834.3L281.6,834.3z"/>
		</g>
	</g>
	<g>
		<g>
			<path class="st2" d="M288.9,831.6c-0.4,8.8-0.1,17.5,0.8,26.3c0.2,1.9,3.2,1.9,3,0c-1-8.8-1.2-17.5-0.8-26.3
				C292,829.6,289,829.6,288.9,831.6L288.9,831.6z"/>
		</g>
	</g>
	<g>
		<g>
			<path class="st2" d="M296,832.5c0.8,9.3,0.2,18.5-1.7,27.7c-0.4,1.9,2.5,2.7,2.9,0.8c2-9.4,2.6-18.9,1.8-28.5
				C298.8,830.6,295.8,830.5,296,832.5L296,832.5z"/>
		</g>
	</g>
	<g>
		<g>
			<path class="st2" d="M304.2,832.5c-0.1,12.4,1.1,24.6,3.8,36.7c0.4,1.9,3.3,1.1,2.9-0.8c-2.6-11.8-3.8-23.8-3.7-35.9
				C307.2,830.5,304.2,830.5,304.2,832.5L304.2,832.5z"/>
		</g>
	</g>
	<g>
		<g>
			<path class="st2" d="M308.6,830.6c0.6,10.6,9,20.6,6.1,31.3c-0.5,1.9,2.4,2.7,2.9,0.8c3.1-11.3-5.4-21-6-32.1
				C311.5,828.7,308.5,828.7,308.6,830.6L308.6,830.6z"/>
		</g>
	</g>
	<g>
		<g>
			<path class="st2" d="M317.1,833.4c-0.4,8.5-0.2,17,0.3,25.4c0.1,1.9,3.1,1.9,3,0c-0.6-8.5-0.7-16.9-0.3-25.4
				C320.1,831.4,317.1,831.4,317.1,833.4L317.1,833.4z"/>
		</g>
	</g>
	<g>
		<g>
			<path class="st2" d="M325.1,832.5c0,9.7,0,19.3,0,29c0,1.9,3,1.9,3,0c0-9.7,0-19.3,0-29C328.1,830.5,325.1,830.5,325.1,832.5
				L325.1,832.5z"/>
		</g>
	</g>
	<g>
		<g>
			<path class="st2" d="M333.3,831.5c0.3,9.1-0.7,17.9-3.1,26.7c-0.5,1.9,2.4,2.7,2.9,0.8c2.4-9,3.5-18.2,3.2-27.5
				C336.3,829.6,333.3,829.6,333.3,831.5L333.3,831.5z"/>
		</g>
	</g>
	<g>
		<g>
			<path class="st2" d="M341.5,831.6c-0.4,10.5,0.6,20.9,2.8,31.2c0.4,1.9,3.3,1.1,2.9-0.8c-2.2-10.1-3-20.2-2.7-30.4
				C344.5,829.6,341.5,829.6,341.5,831.6L341.5,831.6z"/>
		</g>
	</g>
	<g>
		<g>
			<path class="st2" d="M350.5,832.5c0,7.6,0,15.1,0,22.7c0,1.9,3,1.9,3,0c0-7.6,0-15.1,0-22.7C353.5,830.5,350.5,830.5,350.5,832.5
				L350.5,832.5z"/>
		</g>
	</g>
	<g>
		<g>
			<path class="st2" d="M359,831.6c-0.8,9.6-2.3,19.1-4.4,28.5c-0.4,1.9,2.5,2.7,2.9,0.8c2.2-9.7,3.7-19.4,4.5-29.3
				C362.2,829.7,359.2,829.7,359,831.6L359,831.6z"/>
		</g>
	</g>
	<g>
		<g>
			<path class="st2" d="M365.9,831.6c0.4,9.7,0.1,19.4-0.8,29c-0.2,1.9,2.8,1.9,3,0c0.9-9.7,1.2-19.3,0.8-29
				C368.8,829.6,365.8,829.6,365.9,831.6L365.9,831.6z"/>
		</g>
	</g>
	<g>
		<g>
			<path class="st2" d="M373.2,833.4c0,9.7,0,19.3,0,29c0,1.9,3,1.9,3,0c0-9.7,0-19.3,0-29C376.2,831.4,373.2,831.4,373.2,833.4
				L373.2,833.4z"/>
		</g>
	</g>
	<g>
		<g>
			<path class="st2" d="M378.6,833.4c0,9.4,0,18.7,0,28.1c0,1.9,3,1.9,3,0c0-9.4,0-18.7,0-28.1C381.6,831.4,378.6,831.4,378.6,833.4
				L378.6,833.4z"/>
		</g>
	</g>
	<rect x="262.1" y="1030.2" class="st1" width="2.9" height="146.8"/>
	<rect x="294.2" y="1029.9" class="st1" width="2.9" height="146.8"/>
	<rect x="268.4" y="1035.9" class="st1" width="2.9" height="146.8"/>
	<rect x="283.8" y="1035.9" class="st1" width="2.9" height="146.8"/>
	<rect x="273.3" y="1035.9" class="st1" width="2.9" height="146.8"/>
	<circle class="circle3" cx="1316.1" cy="605.2" r="153.7"/>
	<rect x="1216.2" y="739.5" class="st11" width="198.3" height="39.5"/>
	<rect x="1300.6" y="779.1" class="st12" width="14.7" height="178.8"/>
	<circle class="st13" cx="1308" cy="957.9" r="26.6"/>
	<g>
		<g>
			<path class="st2" d="M1220.4,780.8c3.4,9.4,6.4,18.9,8.9,28.5c0.5,1.9,3.4,1.1,2.9-0.8c-2.5-9.6-5.5-19.1-8.9-28.5
				C1222.6,778.2,1219.7,778.9,1220.4,780.8L1220.4,780.8z"/>
		</g>
	</g>
	<g>
		<g>
			<path class="st2" d="M1229.4,779.2c-0.4,10-0.2,20,0.7,29.9c0.2,1.9,3.2,1.9,3,0c-0.9-10-1.1-19.9-0.7-29.9
				C1232.4,777.2,1229.4,777.2,1229.4,779.2L1229.4,779.2z"/>
		</g>
	</g>
	<g>
		<g>
			<path class="st2" d="M1235.6,779.2c0,10.6,0,21.2,0,31.7c0,1.9,3,1.9,3,0c0-10.6,0-21.2,0-31.7
				C1238.6,777.2,1235.6,777.2,1235.6,779.2L1235.6,779.2z"/>
		</g>
	</g>
	<g>
		<g>
			<path class="st2" d="M1243.5,787.9c1.9,0,1.9-3,0-3C1241.6,784.9,1241.6,787.9,1243.5,787.9L1243.5,787.9z"/>
		</g>
	</g>
	<g>
		<g>
			<path class="st2" d="M1241.3,780.1c-0.9,11.1-0.5,22.1,1.1,33.1c0.3,1.9,3.2,1.1,2.9-0.8c-1.6-10.7-1.9-21.5-1-32.3
				C1244.5,778.2,1241.5,778.2,1241.3,780.1L1241.3,780.1z"/>
		</g>
	</g>
	<g>
		<g>
			<path class="st2" d="M1251.1,778.3c0.2,12.3-0.5,24.5-2.2,36.7c-0.3,1.9,2.6,2.7,2.9,0.8c1.7-12.5,2.5-25,2.3-37.5
				C1254.1,776.3,1251.1,776.3,1251.1,778.3L1251.1,778.3z"/>
		</g>
	</g>
	<g>
		<g>
			<path class="st2" d="M1260.3,780.1c-0.9,9.6-0.4,19.1,1.3,28.6c0.4,1.9,3.2,1.1,2.9-0.8c-1.7-9.2-2.1-18.4-1.2-27.8
				C1263.5,778.2,1260.5,778.2,1260.3,780.1L1260.3,780.1z"/>
		</g>
	</g>
	<g>
		<g>
			<path class="st2" d="M1267.6,780.1c-0.9,13.2-0.4,26.3,1.5,39.4c0.3,1.9,3.2,1.1,2.9-0.8c-1.8-12.8-2.3-25.7-1.4-38.6
				C1270.7,778.2,1267.7,778.2,1267.6,780.1L1267.6,780.1z"/>
		</g>
	</g>
	<g>
		<g>
			<path class="st2" d="M1274.4,781.9c0.4,9.1,0.8,18.1,1.2,27.2c0.1,1.9,3.1,1.9,3,0c-0.4-9.1-0.8-18.1-1.2-27.2
				C1277.3,780,1274.3,780,1274.4,781.9L1274.4,781.9z"/>
		</g>
	</g>
	<g>
		<g>
			<path class="st2" d="M1283,780.1c-1.4,11,0.4,21.7,5.3,31.6c0.8,1.7,3.4,0.2,2.6-1.5c-4.6-9.5-6.2-19.7-4.9-30.1
				C1286.2,778.2,1283.2,778.2,1283,780.1L1283,780.1z"/>
		</g>
	</g>
	<g>
		<g>
			<path class="st2" d="M1291,780.1c-0.4,9.4-0.3,18.8,0.4,28.1c0.1,1.9,3.1,1.9,3,0c-0.6-9.4-0.7-18.7-0.4-28.1
				C1294.1,778.1,1291.1,778.1,1291,780.1L1291,780.1z"/>
		</g>
	</g>
	<g>
		<g>
			<path class="st2" d="M1298.5,781.5c-1.9,12.6-0.6,25.2,4,37.1c0.7,1.8,3.6,1,2.9-0.8c-4.4-11.4-5.8-23.4-4-35.5
				C1301.7,780.4,1298.8,779.6,1298.5,781.5L1298.5,781.5z"/>
		</g>
	</g>
	<g>
		<g>
			<path class="st2" d="M1304.8,781c-1.3,10-0.2,19.9,3.4,29.4c0.7,1.8,3.6,1,2.9-0.8c-3.5-9.3-4.5-18.8-3.2-28.6
				C1308,779.1,1305,779.1,1304.8,781L1304.8,781z"/>
		</g>
	</g>
	<g>
		<g>
			<path class="st2" d="M1310.9,782.8c-0.8,10.4,0.8,20.6,4.6,30.3c0.7,1.8,3.6,1,2.9-0.8c-3.7-9.5-5.3-19.3-4.5-29.5
				C1314.1,780.9,1311.1,780.9,1310.9,782.8L1310.9,782.8z"/>
		</g>
	</g>
	<g>
		<g>
			<path class="st2" d="M1318.2,780.1c-0.4,8.8-0.1,17.5,0.8,26.3c0.2,1.9,3.2,1.9,3,0c-1-8.8-1.2-17.5-0.8-26.3
				C1321.3,778.1,1318.3,778.1,1318.2,780.1L1318.2,780.1z"/>
		</g>
	</g>
	<g>
		<g>
			<path class="st2" d="M1325.3,781c0.8,9.3,0.2,18.5-1.7,27.7c-0.4,1.9,2.5,2.7,2.9,0.8c2-9.4,2.6-18.9,1.8-28.5
				C1328.1,779.1,1325.1,779.1,1325.3,781L1325.3,781z"/>
		</g>
	</g>
	<g>
		<g>
			<path class="st2" d="M1333.5,781c-0.1,12.4,1.1,24.6,3.8,36.7c0.4,1.9,3.3,1.1,2.9-0.8c-2.6-11.8-3.8-23.8-3.7-35.9
				C1336.5,779,1333.5,779,1333.5,781L1333.5,781z"/>
		</g>
	</g>
	<g>
		<g>
			<path class="st2" d="M1337.9,779.1c0.6,10.6,9,20.6,6.1,31.3c-0.5,1.9,2.4,2.7,2.9,0.8c3.1-11.3-5.4-21-6-32.1
				C1340.8,777.2,1337.8,777.2,1337.9,779.1L1337.9,779.1z"/>
		</g>
	</g>
	<g>
		<g>
			<path class="st2" d="M1346.4,781.9c-0.4,8.5-0.2,17,0.3,25.4c0.1,1.9,3.1,1.9,3,0c-0.6-8.5-0.7-16.9-0.3-25.4
				C1349.4,780,1346.4,780,1346.4,781.9L1346.4,781.9z"/>
		</g>
	</g>
	<g>
		<g>
			<path class="st2" d="M1354.4,781c0,9.7,0,19.3,0,29c0,1.9,3,1.9,3,0c0-9.7,0-19.3,0-29C1357.4,779,1354.4,779,1354.4,781
				L1354.4,781z"/>
		</g>
	</g>
	<g>
		<g>
			<path class="st2" d="M1362.7,780.1c0.3,9.1-0.7,17.9-3.1,26.7c-0.5,1.9,2.4,2.7,2.9,0.8c2.4-9,3.5-18.2,3.2-27.5
				C1365.6,778.1,1362.6,778.1,1362.7,780.1L1362.7,780.1z"/>
		</g>
	</g>
	<g>
		<g>
			<path class="st2" d="M1370.8,780.1c-0.4,10.5,0.6,20.9,2.8,31.2c0.4,1.9,3.3,1.1,2.9-0.8c-2.2-10.1-3-20.2-2.7-30.4
				C1373.8,778.1,1370.8,778.1,1370.8,780.1L1370.8,780.1z"/>
		</g>
	</g>
	<g>
		<g>
			<path class="st2" d="M1379.8,781c0,7.6,0,15.1,0,22.7c0,1.9,3,1.9,3,0c0-7.6,0-15.1,0-22.7C1382.8,779,1379.8,779,1379.8,781
				L1379.8,781z"/>
		</g>
	</g>
	<g>
		<g>
			<path class="st2" d="M1388.3,780.1c-0.8,9.6-2.3,19.1-4.4,28.5c-0.4,1.9,2.5,2.7,2.9,0.8c2.2-9.7,3.7-19.4,4.5-29.3
				C1391.5,778.2,1388.5,778.2,1388.3,780.1L1388.3,780.1z"/>
		</g>
	</g>
	<g>
		<g>
			<path class="st2" d="M1395.2,780.1c0.4,9.7,0.1,19.4-0.8,29c-0.2,1.9,2.8,1.9,3,0c0.9-9.7,1.2-19.3,0.8-29
				C1398.1,778.1,1395.1,778.1,1395.2,780.1L1395.2,780.1z"/>
		</g>
	</g>
	<g>
		<g>
			<path class="st2" d="M1402.5,781.9c0,9.7,0,19.3,0,29c0,1.9,3,1.9,3,0c0-9.7,0-19.3,0-29C1405.5,780,1402.5,779.9,1402.5,781.9
				L1402.5,781.9z"/>
		</g>
	</g>
	<g>
		<g>
			<path class="st2" d="M1407.9,781.9c0,9.4,0,18.7,0,28.1c0,1.9,3,1.9,3,0c0-9.4,0-18.7,0-28.1
				C1410.9,780,1407.9,779.9,1407.9,781.9L1407.9,781.9z"/>
		</g>
	</g>
	<rect x="1291.4" y="978.7" class="st1" width="2.9" height="146.8"/>
	<rect x="1323.5" y="978.5" class="st1" width="2.9" height="146.8"/>
	<rect x="1297.7" y="984.4" class="st1" width="2.9" height="146.8"/>
	<rect x="1313.1" y="984.4" class="st1" width="2.9" height="146.8"/>
	<rect x="1302.6" y="984.4" class="st1" width="2.9" height="146.8"/>
</g>
<g id="Layer_3">
	
		<image style="overflow:visible;" width="294" height="330" xlink:href="monkey1.png"  transform="matrix(2.0558 0 0 1.7223 439.699 957.8703)">
	</image>
	
		<image style="overflow:visible;" width="178" height="178" xlink:href="monkeyword.png"  transform="matrix(1 0 0 1.0395 459.3154 823.8632)">
	</image>
	<g>
	</g>
	<g>
	</g>
	<g>
	</g>
	<g>
	</g>
	<g>
	</g>
	<g>
	</g>
	<g>
	</g>
	<g>
	</g>
	<g>
	</g>
	<g>
	</g>
	<g>
	</g>
</g>
</svg>
